<svg width="26" height="26" viewBox="0 0 26 26" fill="none" xmlns="http://www.w3.org/2000/svg">
<g clip-path="url(#clip0_1338_230)">
<path d="M13 26C20.1799 26 26 20.1799 26 13C26 5.8201 20.1799 0 13 0C5.8201 0 0 5.8201 0 13C0 20.1799 5.8201 26 13 26Z" fill="#7F5AF0"/>
<path fill-rule="evenodd" clip-rule="evenodd" d="M19.5902 9.50496C19.9807 9.11443 19.9807 8.48127 19.5902 8.09074C19.1996 7.70022 18.5665 7.70022 18.176 8.09074L10.4785 15.7882L7.82381 13.1335C7.43328 12.7429 6.80012 12.7429 6.40959 13.1335C6.01907 13.524 6.01907 14.1572 6.40959 14.5477L9.77141 17.9095C10.1619 18.3 10.7951 18.3 11.1856 17.9095L19.5902 9.50496Z" fill="#FFFFFE"/>
</g>
<defs>
<clipPath id="clip0_1338_230">
<rect width="26" height="26" fill="white"/>
</clipPath>
</defs>
</svg>
